<svg width="25" height="26" viewBox="0 0 25 26" fill="none" xmlns="http://www.w3.org/2000/svg">
<path d="M12.5 10.6743H19.4444V7.89653H12.5V10.6743ZM12.5 19.0076H19.4444V16.2299H12.5V19.0076ZM8.33333 12.0632C9.09722 12.0632 9.75116 11.7912 10.2951 11.2472C10.8391 10.7032 11.1111 10.0493 11.1111 9.28542C11.1111 8.52153 10.8391 7.8676 10.2951 7.32362C9.75116 6.77963 9.09722 6.50764 8.33333 6.50764C7.56944 6.50764 6.91551 6.77963 6.37153 7.32362C5.82755 7.8676 5.55556 8.52153 5.55556 9.28542C5.55556 10.0493 5.82755 10.7032 6.37153 11.2472C6.91551 11.7912 7.56944 12.0632 8.33333 12.0632ZM8.33333 20.3965C9.09722 20.3965 9.75116 20.1245 10.2951 19.5806C10.8391 19.0366 11.1111 18.3826 11.1111 17.6188C11.1111 16.8549 10.8391 16.2009 10.2951 15.6569C9.75116 15.113 9.09722 14.841 8.33333 14.841C7.56944 14.841 6.91551 15.113 6.37153 15.6569C5.82755 16.2009 5.55556 16.8549 5.55556 17.6188C5.55556 18.3826 5.82755 19.0366 6.37153 19.5806C6.91551 20.1245 7.56944 20.3965 8.33333 20.3965ZM2.77778 25.9521C2.01389 25.9521 1.35995 25.6801 0.815972 25.1361C0.271991 24.5921 0 23.9382 0 23.1743V3.72987C0 2.96598 0.271991 2.31204 0.815972 1.76806C1.35995 1.22408 2.01389 0.952087 2.77778 0.952087H22.2222C22.9861 0.952087 23.64 1.22408 24.184 1.76806C24.728 2.31204 25 2.96598 25 3.72987V23.1743C25 23.9382 24.728 24.5921 24.184 25.1361C23.64 25.6801 22.9861 25.9521 22.2222 25.9521H2.77778ZM2.77778 23.1743H22.2222V3.72987H2.77778V23.1743Z" fill="white"/>
</svg>
