<svg width="37" height="46" viewBox="0 0 37 46" fill="none" xmlns="http://www.w3.org/2000/svg">
    <path d="M0.740899 45.9838C0.384399 45.7663 0.285385 45.445 0.290336 45.0346C0.30519 42.5974 0.290315 40.1602 0.300218 37.728C0.30517 33.951 2.70661 30.886 6.38054 29.9516C8.29178 29.4672 10.1981 28.9777 12.1093 28.4933C12.8817 28.2955 13.1045 27.9495 13.1788 27.1634C13.2679 26.1796 12.9956 25.5073 12.1836 24.8152C10.1634 23.1047 9.23751 20.801 9.2078 18.1561C9.18799 16.6038 9.2078 15.0466 9.2078 13.4943C9.2078 13.3311 9.2078 13.168 9.2078 12.9307C8.88596 12.9307 8.59382 12.9307 8.30169 12.9307C7.79664 12.9357 7.39062 12.7577 7.14305 12.3029C6.89053 11.8382 6.95987 11.3834 7.25695 10.9533C7.82636 10.1128 8.4007 9.27242 8.9404 8.41223C9.11866 8.13044 9.26722 7.80416 9.33158 7.48283C9.66333 5.75256 9.96534 4.01734 10.2674 2.28213C10.5149 0.883082 11.4607 0.0723264 12.8768 0.0673828C16.4517 0.0673828 20.0266 0.0673828 23.6015 0.0673828C25.0522 0.0673828 25.993 0.873195 26.2406 2.29696C26.5575 4.0915 26.8843 5.88109 27.216 7.67069C27.2507 7.86843 27.3348 8.07112 27.4438 8.2392C28.0132 9.11423 28.5925 9.98925 29.1867 10.8494C29.4986 11.2993 29.6372 11.764 29.3748 12.2782C29.1025 12.8121 28.6173 12.9554 28.0528 12.9307C27.8151 12.9208 27.5824 12.9307 27.3002 12.9307C27.3002 13.1729 27.3002 13.3657 27.3002 13.5536C27.2804 15.3778 27.3497 17.2069 27.2209 19.0213C27.0377 21.6513 25.7801 23.7573 23.7005 25.3639C23.4381 25.5666 23.2994 25.7644 23.3292 26.1005C23.3589 26.4713 23.3292 26.847 23.3391 27.2227C23.3539 27.9495 23.6362 28.2955 24.364 28.4834C26.3594 28.9975 28.3598 29.4919 30.3502 30.0258C30.9097 30.1741 31.4445 30.4163 31.9743 30.6536C32.4249 30.8563 32.5585 31.237 32.3654 31.6028C32.1773 31.9587 31.8258 31.9933 31.3603 31.85C29.662 31.3358 27.9538 30.8563 26.2505 30.3669C26.2109 30.357 26.1663 30.3768 26.092 30.3817C25.582 32.4136 25.0721 34.4553 24.5522 36.5316C25.5672 36.7343 25.7306 37.4511 25.7157 38.3459C25.6811 40.3629 25.686 42.3799 25.7157 44.3969C25.7256 45.1385 25.483 45.6625 24.8096 45.9789H11.7033C11.025 45.6674 10.7823 45.1434 10.7972 44.3969C10.8269 42.3651 10.8318 40.3333 10.7972 38.3014C10.7823 37.4116 10.9804 36.7293 11.9608 36.5316C11.4359 34.4454 10.9259 32.3987 10.3961 30.2977C8.86614 30.708 7.36091 30.9997 5.93491 31.5138C3.51863 32.3938 2.03818 34.1834 1.751 36.7491C1.57275 38.3459 1.68661 39.9724 1.66681 41.584C1.66681 41.6038 1.70149 41.6285 1.71634 41.6433H7.03413C7.03413 41.4703 7.03413 41.3269 7.03413 41.1786C7.04403 40.6299 7.30149 40.3135 7.73226 40.3283C8.14323 40.3431 8.37594 40.6447 8.38089 41.1786C8.38089 42.4788 8.371 43.779 8.39081 45.0791C8.39576 45.4796 8.26703 45.7712 7.93033 45.9739H7.47974C7.12819 45.7564 7.01432 45.44 7.02917 45.0297C7.05393 44.3673 7.03413 43.6999 7.03413 43.0424H1.64701C1.64701 43.7295 1.62721 44.3821 1.65197 45.0346C1.66682 45.4499 1.55294 45.7614 1.19149 45.9739H0.740899V45.9838ZM10.5397 12.9554C10.5397 14.656 10.5298 16.3023 10.5447 17.9436C10.5447 18.4478 10.5694 18.9619 10.6635 19.4612C11.4211 23.5447 14.9019 26.1747 19.0561 25.8138C22.5518 25.5122 25.6216 22.5263 25.8593 19.041C25.9979 17.0636 25.9187 15.0713 25.9336 13.084C25.9336 13.0444 25.8989 13.0049 25.8791 12.9554H10.5397ZM8.47002 11.5415H28.0132C27.4784 10.7357 26.9734 10.0041 26.4981 9.2477C26.3248 8.9758 26.1267 8.88188 25.8048 8.88682C22.9182 8.90165 20.0315 8.89176 17.1449 8.89176C16.9963 8.89176 16.8428 8.89671 16.6943 8.88188C16.2982 8.84727 16.0358 8.58031 16.0358 8.22437C16.0358 7.86843 16.2883 7.60148 16.6844 7.55698C16.8329 7.54215 16.9815 7.5471 17.135 7.5471C19.8434 7.5471 22.5518 7.5471 25.2553 7.5471C25.4236 7.5471 25.5969 7.5471 25.795 7.5471C25.7455 7.22576 25.6811 6.99341 25.6712 6.75611C25.6563 6.3013 25.4434 6.1876 24.9978 6.1876C20.497 6.20737 15.9912 6.19749 11.4904 6.19749C11.3716 6.19749 11.2428 6.17277 11.1339 6.20737C11.0398 6.23703 10.916 6.32108 10.8962 6.40017C10.812 6.75612 10.7625 7.12194 10.6932 7.54215C10.9061 7.54215 11.0695 7.54215 11.2279 7.54215C11.9608 7.54215 12.6936 7.54215 13.4264 7.54215C13.7829 7.54215 14.0849 7.64102 14.1988 8.02168C14.3424 8.49133 14.0205 8.87693 13.461 8.88188C12.5054 8.89671 11.5448 8.88188 10.5892 8.89176C10.4407 8.89176 10.2278 8.93131 10.1585 9.03019C9.594 9.836 9.05923 10.6566 8.47002 11.5317V11.5415ZM24.7898 29.9813C24.5373 29.922 24.3194 29.9022 24.1362 29.8181C23.7104 29.6105 23.4579 29.7835 23.146 30.0851C21.7893 31.4001 20.1405 32.0724 18.254 32.0724C16.2635 32.0724 14.5553 31.3408 13.159 29.917C12.9659 29.7193 12.8025 29.6501 12.545 29.7489C12.2826 29.8478 12.0053 29.9071 11.6983 29.9961C12.2479 32.1911 12.7926 34.3663 13.3372 36.5464H14.8623C14.8771 36.319 14.8821 36.1163 14.9068 35.9087C14.9712 35.3303 15.3723 34.8705 15.9466 34.8557C17.4865 34.826 19.0264 34.826 20.5613 34.8557C21.1109 34.8656 21.512 35.3254 21.5813 35.8741C21.6061 36.0916 21.616 36.3141 21.6308 36.5415H23.1559C23.7005 34.3613 24.2402 32.196 24.7997 29.9763L24.7898 29.9813ZM25.3147 4.8281C25.1513 3.94319 25.0176 3.09288 24.8344 2.25247C24.7205 1.72844 24.2996 1.41699 23.75 1.41699C20.0761 1.41205 16.3972 1.41205 12.7233 1.41699C12.1935 1.41699 11.7726 1.71856 11.6587 2.21786C11.4656 3.07311 11.3319 3.93825 11.1636 4.83304H25.3097L25.3147 4.8281ZM24.3343 37.9109C23.3836 37.9109 22.4775 37.9158 21.5665 37.9109C20.7792 37.9059 20.3138 37.4561 20.2544 36.6799C20.2445 36.5217 20.2346 36.3635 20.2246 36.2103H16.2635C16.2487 36.2943 16.2388 36.3388 16.2338 36.3783C16.1695 37.5648 15.803 37.9109 14.6296 37.9109C13.8126 37.9109 12.9956 37.9109 12.1687 37.9109V40.5854H15.7733C16.1942 39.4483 16.9716 38.7661 18.1846 38.7414C19.4572 38.7167 20.2742 39.4137 20.7099 40.5705H24.3393V37.9158L24.3343 37.9109ZM12.1638 44.6045H24.3244V41.9498C23.1559 41.9498 22.0071 41.9449 20.8634 41.9597C20.7792 41.9597 20.6604 42.1031 20.6158 42.2069C20.1553 43.2352 19.3631 43.8136 18.2441 43.8136C17.1201 43.8136 16.3328 43.2352 15.8724 42.2069C15.8278 42.1031 15.709 41.9646 15.6248 41.9646C14.481 41.9498 13.3323 41.9548 12.1638 41.9548V44.6095V44.6045ZM21.9824 26.412C19.4671 27.465 17.0161 27.465 14.5206 26.4219C14.5058 27.3068 14.58 28.1571 14.0106 28.8393C16.1694 31.3556 20.4871 31.3507 22.4775 28.8294C21.923 28.1521 21.9774 27.3167 21.9873 26.412H21.9824ZM19.4324 41.2528C19.4225 40.5903 18.8828 40.0614 18.2243 40.0712C17.5657 40.0811 17.0458 40.62 17.0557 41.2874C17.0656 41.9498 17.6054 42.4837 18.2639 42.4689C18.9224 42.459 19.4423 41.9152 19.4324 41.2478V41.2528Z"
          fill="white"/>
    <path d="M28.5677 45.9839C28.2062 45.7713 28.1023 45.4549 28.1072 45.0446C28.127 43.9421 28.1122 42.8348 28.1171 41.7323C28.1171 41.1638 28.3053 40.882 28.7162 40.8375C29.1421 40.793 29.3896 41.0452 29.4936 41.6483H34.851C34.851 41.4654 34.851 41.2874 34.851 41.1144C34.8312 39.6659 34.8411 38.2174 34.7718 36.7739C34.7223 35.7555 34.3113 34.8409 33.7518 33.9906C33.7122 33.9263 33.6676 33.867 33.628 33.8027C33.3953 33.4171 33.4448 33.0266 33.7617 32.8091C34.0835 32.5866 34.4747 32.6707 34.7322 33.0365C35.4699 34.0746 35.9354 35.2265 36.1136 36.4871C36.1285 36.6008 36.173 36.7096 36.2027 36.8233V45.969H35.3065C34.9451 45.7564 34.8312 45.445 34.8461 45.0297C34.8708 44.3673 34.851 43.6999 34.851 43.0325H29.4639C29.4639 43.7147 29.4441 44.3673 29.4689 45.0198C29.4837 45.4302 29.3698 45.7466 29.0183 45.9641H28.5677V45.9839Z"
          fill="white"/>
</svg>
