<svg width="58" height="47" viewBox="0 0 58 47" fill="none" xmlns="http://www.w3.org/2000/svg">
    <path d="M57.8433 13.8701C57.3481 15.1356 56.2341 15.6498 55.1052 16.1886C50.9806 18.1611 46.8611 20.1485 42.7564 22.1655C41.7711 22.6499 40.8451 22.6549 39.8796 22.1902C39.8004 22.1506 39.7311 22.0765 39.637 22.116C41.5978 28.429 39.8153 33.8621 35.5521 38.5833C31.4821 43.0919 26.2683 45.4697 20.2523 46.1668C19.7324 46.2261 19.1927 46.1421 18.6976 46.3695H16.6923C15.9793 46.1075 15.2167 46.1717 14.479 46.0432C9.85438 45.2473 5.86356 43.344 2.94223 39.5473C2.16982 38.5437 1.60536 37.4215 1.08051 36.2746C0.511104 35.0238 0.620035 33.8176 1.49148 32.8437C2.24409 31.9983 2.25894 31.237 1.92225 30.2631C1.63507 29.4227 1.59546 28.518 1.5608 27.6282C1.50633 26.3725 2.38273 25.3442 3.63543 25.2453C4.18504 25.2009 4.31872 24.9487 4.31377 24.4593C4.29892 22.4571 4.29892 20.455 4.31377 18.4479C4.32863 16.8708 5.49716 15.6053 7.04694 15.4471C8.55217 15.2938 9.94845 16.3172 10.2901 17.825C10.3792 18.2106 10.3446 18.6011 10.3347 18.9867C10.2703 21.33 10.4139 23.6535 11.0378 25.9572C12.3499 25.3937 13.6571 24.835 14.9642 24.2813C15.2118 24.1775 15.0781 24.0193 15.0434 23.871C14.4493 21.2806 15.1326 19.0065 16.7418 16.9499C16.9695 16.6583 17.1329 16.5643 17.4053 16.9005C17.6627 17.2169 18.1282 17.4492 18.2173 17.7904C18.3114 18.1463 17.8212 18.438 17.6182 18.7741C16.821 20.0891 16.4645 21.4882 16.7022 23.0257C16.7616 23.4162 16.8309 23.5793 17.3062 23.4063C21.406 21.9035 25.5998 20.7417 29.9372 20.1633C32.2594 19.8518 34.5965 19.664 36.9187 20.2177C37.2257 20.2918 37.5178 20.4154 37.8149 20.5044C37.9634 20.5489 38.1021 20.7022 38.2754 20.5538C38.4487 20.4055 38.3298 20.2424 38.3001 20.0941C38.0575 18.8977 38.414 17.9041 39.2904 17.0785C39.5231 16.861 39.7905 16.6929 40.0777 16.5643C44.529 14.5473 49.01 12.5897 53.4266 10.4985C55.219 9.64819 57.155 10.2563 57.7542 12.5353C57.7641 12.5798 57.8185 12.6144 57.8532 12.649V13.875L57.8433 13.8701ZM31.9525 28.1127C31.8584 28.2857 31.7643 28.4587 31.6653 28.6317C32.3387 28.3401 32.9328 27.9792 33.522 27.6035C34.2548 27.1388 34.7104 25.7397 34.4232 24.8795C34.2548 24.4692 33.9429 24.2764 33.5121 24.3407C33.1061 24.4 32.8239 24.6571 32.7645 25.0624C32.6159 26.1105 32.304 27.114 31.9525 28.1077V28.1127ZM44.6132 16.5347C44.1824 16.6286 43.8209 16.861 43.3852 17.0785C44.0636 17.7162 44.3854 18.4627 44.4795 19.3575C48.198 17.5481 51.862 15.7684 55.5211 13.9739C56.1004 13.6921 56.1796 13.2422 55.8528 12.6341C55.5409 11.858 55.1448 11.6949 54.3823 12.0409C52.4314 12.9258 50.4756 13.8107 48.5297 14.7105C47.2225 15.3136 45.8857 15.8475 44.6181 16.5347H44.6132ZM3.77407 30.3521C4.15533 31.8253 4.73959 33.1996 5.8289 34.2922C7.11626 35.5924 8.67595 36.1856 10.5179 35.9335C11.1071 35.8544 11.6963 35.7802 12.2806 35.6715C13.4392 35.4589 14.5978 35.2513 15.8159 34.8854C14.7612 34.3663 13.8601 33.7879 13.0678 33.0513C10.7357 30.891 9.60186 28.1176 8.98789 25.0822C8.55712 22.9416 8.49275 20.7812 8.54722 18.6061C8.57197 17.736 8.15606 17.296 7.30937 17.2317C6.5419 17.2762 6.09627 17.7508 6.09132 18.5714C6.08637 20.5884 6.09132 22.6055 6.09132 24.6225C6.09132 25.9523 5.26939 26.8619 3.94242 26.9904C3.49184 27.0349 3.31854 27.2426 3.34825 27.6727C3.41262 28.5774 3.51165 29.4771 3.77902 30.3472L3.77407 30.3521ZM14.677 37.0408C14.5681 37.0557 14.4542 37.0606 14.3502 37.0853C11.6913 37.644 9.01264 38.0444 6.28443 38.0246C5.51201 38.0197 4.7495 37.8961 3.89786 37.7972C4.0563 38.0345 4.16028 38.2075 4.27911 38.3657C5.56647 40.1158 7.20043 41.4703 9.13148 42.4591C13.454 44.6639 17.9994 44.9902 22.6785 43.9619C25.1393 43.4231 27.4665 42.5382 29.5906 41.1589C31.4573 40.1207 33.0566 38.7464 34.4529 37.1496C37.1019 34.1192 38.6764 30.6487 38.6368 26.5554C38.6368 26.328 38.6566 26.0907 38.5081 25.8238C37.4138 27.0349 36.176 27.994 34.8589 28.8641C30.8929 31.4842 26.5604 33.3381 22.0893 34.9052C19.6581 35.7604 17.1676 36.418 14.6721 37.0359L14.677 37.0408ZM36.3344 25.4579C36.8048 25.0427 37.1564 24.6571 37.4584 24.2368C38.3298 23.0306 38.112 22.3879 36.681 21.9924C35.3194 21.6167 33.9281 21.6068 32.5318 21.7008C27.4714 22.0468 22.6389 23.3865 17.8855 25.0624C17.5389 25.186 17.5686 25.2997 17.7221 25.5667C17.9004 25.8781 18.3708 26.1352 18.2569 26.4664C18.1579 26.768 17.732 26.9608 17.4498 27.203C17.3805 27.2624 17.3013 27.3167 17.2369 27.3859C17.0686 27.5689 16.9349 27.5491 16.8012 27.3414C16.5338 26.941 16.2417 26.5554 15.9892 26.1451C15.8604 25.9375 15.7614 25.8682 15.5089 25.9721C14.3106 26.4664 13.1223 26.9904 11.9439 27.5342C11.6567 27.6677 11.6171 27.7913 11.7409 28.083C13.0629 31.1332 15.2613 33.1601 18.549 33.9362C18.8511 34.0104 19.1234 34.0055 19.4155 33.9115C22.1933 33.0365 24.9165 32.0231 27.5705 30.8168C27.9022 30.6685 28.1745 30.4708 28.4221 30.2137C29.8234 28.7207 30.6502 26.9558 30.9572 24.9388C31.1404 23.7277 31.9029 22.8922 33.0517 22.6203C34.0915 22.3731 35.2055 22.8131 35.8343 23.7128C36.1809 24.2121 36.3097 24.7806 36.3295 25.4579H36.3344ZM41.3254 20.7318C42.1474 20.6923 42.7118 20.1139 42.6722 19.3624C42.6326 18.6505 42.0087 18.0771 41.3007 18.0969C40.6124 18.1166 40.0727 18.6555 40.1024 19.2883C40.8551 18.8928 41.266 18.9027 41.5978 19.3229C41.9146 19.7283 41.8354 20.1633 41.3304 20.7269L41.3254 20.7318ZM3.1403 33.6297C2.89273 33.8275 2.78379 34.045 2.68476 34.2576C2.51641 34.6185 2.37282 35.014 2.72437 35.3353C3.37796 35.9285 4.19494 36.0324 5.18027 36.1362C4.28407 35.3452 3.65524 34.5542 3.13534 33.6297H3.1403Z"
          fill="white"/>
    <path d="M14.9989 5.63393C13.5135 5.62405 12.3153 4.40792 12.3351 2.92483C12.3499 1.4714 13.5581 0.289872 15.0187 0.294815C16.4992 0.294815 17.6974 1.51589 17.6826 3.00392C17.6677 4.44746 16.4497 5.64382 14.9989 5.63393ZM15.0237 3.84929C15.5089 3.84434 15.905 3.44391 15.9001 2.95943C15.9001 2.46013 15.4644 2.0498 14.9593 2.06464C14.484 2.07947 14.0928 2.49967 14.1126 2.98415C14.1275 3.45874 14.5434 3.85423 15.0237 3.84929Z"
          fill="white"/>
    <path d="M11.4388 9.20325C11.4289 10.6863 10.2108 11.8827 8.72541 11.8629C7.2697 11.8481 6.08137 10.6418 6.08632 9.18348C6.08632 7.70533 7.30931 6.51392 8.79968 6.5238C10.2504 6.53369 11.4487 7.74982 11.4388 9.20325ZM7.9827 9.51964C8.11639 10.0041 8.49269 10.1327 8.92347 10.0634C9.36909 9.98929 9.64637 9.67784 9.64637 9.21808C9.64637 8.71877 9.39385 8.38755 8.85909 8.33317C8.07677 8.35295 7.73513 8.81765 7.9827 9.51964Z"
          fill="white"/>
    <path d="M16.7567 11.8678C15.8456 11.8678 15.8357 11.8678 16.0041 10.9434C16.3507 9.03513 17.4152 7.50755 18.658 6.08378C18.7768 5.9503 18.8808 5.89592 19.0145 6.05906C19.0492 6.10355 19.0937 6.13816 19.1333 6.17771C19.4304 6.48422 19.8959 6.74623 19.985 7.10217C20.084 7.49272 19.5394 7.75473 19.3017 8.09089C18.5243 9.16861 17.8361 10.2809 17.7024 11.6404C17.6826 11.8481 17.5935 11.8777 17.4251 11.8728C17.2023 11.8629 16.9795 11.8728 16.7567 11.8728V11.8678Z"
          fill="white"/>
    <path d="M4.30385 12.7626C4.30385 13.3526 4.00511 13.6476 3.40764 13.6476C2.81018 13.6476 2.51475 13.3493 2.52135 12.7528C2.52795 12.1562 2.82668 11.8613 3.41755 11.8678C4.00842 11.8744 4.30385 12.1727 4.30385 12.7626Z"
          fill="white"/>
    <path d="M13.2511 12.7577C13.832 12.7577 14.1225 13.0428 14.1225 13.6129C14.1225 14.1831 13.8172 14.4913 13.2065 14.5374C12.5958 14.5835 12.3054 14.2985 12.3351 13.6821C12.3648 13.0658 12.6701 12.7577 13.2511 12.7577Z"
          fill="white"/>
    <path d="M13.2263 21.6859C13.2263 22.2627 12.9392 22.551 12.3648 22.551C11.7904 22.551 11.4818 22.2462 11.4389 21.6365C11.396 21.0268 11.6831 20.7384 12.3004 20.7713C12.9177 20.8043 13.2263 21.1091 13.2263 21.6859Z"
          fill="white"/>
    <path d="M16.7962 29.6452C16.7962 29.0717 17.1643 28.785 17.9004 28.785C18.3526 28.785 18.5787 29.1574 18.5787 29.9022C18.5787 30.3439 18.2007 30.5647 17.4448 30.5647C17.0091 30.5647 16.7913 30.2582 16.7913 29.6452H16.7962Z"
          fill="white"/>
    <path d="M7.98281 31.4545C8.48785 31.3062 8.78989 31.5286 9.0127 32.1268C9.32464 32.9574 10.0129 33.5358 10.7308 34.04C10.9784 34.213 11.0477 34.3515 10.8348 34.5986C10.6714 34.7964 10.5179 35.0139 10.404 35.2413C10.1812 35.6912 9.95346 35.7406 9.54744 35.4094C8.45319 34.5195 7.49262 33.5456 7.09651 32.1417C6.9034 31.4545 6.91331 31.4495 7.61146 31.4495C7.70553 31.4495 7.79466 31.4495 7.98281 31.4495V31.4545Z"
          fill="white"/>
</svg>
