<svg width="29" height="29" viewBox="0 0 29 29" fill="none" xmlns="http://www.w3.org/2000/svg">
<path d="M29 21.75C29 25.8825 22.7662 29 14.5 29C6.23379 29 0 25.8825 0 21.75C0 18.5769 3.62379 15.9633 9.45521 14.929C10.1234 14.8166 10.7397 15.2516 10.8557 15.9089C10.9729 16.5651 10.5343 17.1922 9.87692 17.3094C5.5535 18.0755 2.41546 19.9424 2.41546 21.75C2.41546 24.0362 7.37687 26.5834 14.4988 26.5834C21.6207 26.5834 26.5821 24.0362 26.5821 21.75C26.5821 19.9424 23.4441 18.0755 19.1207 17.3094C18.4633 17.1922 18.0259 16.5651 18.1419 15.9089C18.2579 15.2516 18.8742 14.813 19.5424 14.929C25.3738 15.9621 28.9976 18.5757 28.9976 21.75H29ZM13.2917 21.75V3.25285C13.2917 1.57689 14.1762 0.778187 14.7054 0.451936C15.5839 -0.0906052 16.791 -0.148605 17.7105 0.310561C17.7577 0.33352 24.1159 4.61465 24.1159 4.61465C24.9968 5.26473 25.4475 6.25314 25.3653 7.28989C25.2856 8.32544 24.6863 9.23169 23.7667 9.71381L15.7083 13.6663V21.7488C15.7083 22.4158 15.1682 22.9571 14.5 22.9571C13.8318 22.9571 13.2917 22.417 13.2917 21.75ZM15.7083 10.9753L22.6744 7.55815C22.8955 7.44214 22.9475 7.22223 22.9559 7.1026C22.9656 6.98177 22.9475 6.7546 22.7227 6.58785L16.5856 2.45294C16.5191 2.42998 16.4321 2.41548 16.3391 2.41548C16.2158 2.41548 16.0829 2.44085 15.9766 2.50731C15.799 2.61727 15.7083 2.86739 15.7083 3.25285V10.9753Z" fill="white"/>
</svg>
