<svg width="24" height="29" viewBox="0 0 24 29" fill="none" xmlns="http://www.w3.org/2000/svg">
<path d="M21.6 0.627563H3.6C1.6152 0.627563 0 2.1979 0 4.12756V25.1276C0 27.0572 1.6152 28.6276 3.6 28.6276H24V2.9609C24 1.67406 22.9236 0.627563 21.6 0.627563ZM3.6 2.9609H21.6V21.6276H3.6C3.1776 21.6276 2.7768 21.7116 2.4 21.8422V4.12756C2.4 3.48356 2.9388 2.9609 3.6 2.9609ZM3.6 26.2942C2.9388 26.2942 2.4 25.7716 2.4 25.1276C2.4 24.4836 2.9388 23.9609 3.6 23.9609H21.6V26.2942H3.6ZM12 19.2861L16.242 15.2517C17.3748 14.1516 18 12.6862 18 11.1276C18 9.5689 17.3748 8.10356 16.242 7.0034C15.1104 5.90206 13.6032 5.29423 12 5.29423C10.3968 5.29423 8.8908 5.90206 7.7568 7.0034C6.6228 8.10473 6 9.5689 6 11.1276C6 12.6862 6.624 14.1504 7.7664 15.2611L12 19.2861ZM9.4536 8.65306C10.134 7.99273 11.0376 7.62756 12 7.62756C12.9624 7.62756 13.866 7.99156 14.544 8.65306C15.2232 9.3134 15.5988 10.1919 15.5988 11.1276C15.5988 12.0632 15.2244 12.9417 14.5536 13.5927L11.9988 16.0229L9.4524 13.6021C8.7732 12.9417 8.3988 12.0632 8.3988 11.1276C8.3988 10.1919 8.7732 9.3134 9.4524 8.65306H9.4536ZM10.2 11.0062C10.2 10.0402 11.0064 9.25623 12 9.25623C12.9936 9.25623 13.8 10.0402 13.8 11.0062C13.8 11.9722 12.9936 12.7562 12 12.7562C11.0064 12.7562 10.2 11.9722 10.2 11.0062Z" fill="white"/>
</svg>
