<svg width="24" height="25" viewBox="0 0 24 25" fill="none" xmlns="http://www.w3.org/2000/svg">
<g clip-path="url(#clip0_744_217)">
<path d="M15 24.7281L7 21.9281L0.8 24.3281C0.355556 24.5059 -0.0555555 24.4559 -0.433333 24.1781C-0.811111 23.9003 -1 23.5281 -1 23.0614V4.39476C-1 4.10587 -0.916667 3.85031 -0.75 3.62809C-0.583333 3.40587 -0.355556 3.2392 -0.0666666 3.12809L7 0.728088L15 3.52809L21.2 1.12809C21.6444 0.950311 22.0556 1.00031 22.4333 1.27809C22.8111 1.55587 23 1.92809 23 2.39476V21.0614C23 21.3503 22.9167 21.6059 22.75 21.8281C22.5833 22.0503 22.3556 22.217 22.0667 22.3281L15 24.7281ZM13.6667 21.4614V5.86142L8.33333 3.99476V19.5948L13.6667 21.4614ZM16.3333 21.4614L20.3333 20.1281V4.32809L16.3333 5.86142V21.4614ZM1.66667 21.1281L5.66667 19.5948V3.99476L1.66667 5.32809V21.1281Z" fill="white"/>
</g>
<defs>
<clipPath id="clip0_744_217">
<rect width="24" height="24" fill="white" transform="translate(0 0.728088)"/>
</clipPath>
</defs>
</svg>
