<svg width="32" height="33" viewBox="0 0 32 33" fill="none" xmlns="http://www.w3.org/2000/svg">
<path d="M31.5106 20.8562C31.8359 19.5803 32 18.2673 32 16.9309C32 14.7798 31.5748 12.6888 30.7367 10.7158C29.9281 8.81268 28.7722 7.10128 27.3007 5.62988C25.8293 4.15848 24.1184 3.00255 22.2147 2.19396C20.2422 1.35631 18.1511 0.931152 16 0.931152C13.8489 0.931152 11.7578 1.35631 9.78478 2.19443C7.88164 3.00302 6.17022 4.15895 4.6988 5.63035C4.07113 6.258 3.5016 6.92925 2.99159 7.64034C2.95456 7.68346 2.92128 7.73034 2.89222 7.78049C2.24908 8.6969 1.70392 9.67752 1.26282 10.7163C0.42516 12.6892 0 14.7798 0 16.9309C0 19.082 0.42516 21.1731 1.26329 23.146C2.0719 25.0492 3.22784 26.7601 4.69926 28.232C6.17069 29.7034 7.88164 30.8593 9.78525 31.6679C11.7578 32.506 13.8484 32.9307 15.9991 32.9312H16C16 32.9312 16.0005 32.9312 16.0009 32.9312C18.1516 32.9312 20.2427 32.506 22.2152 31.6679C24.1184 30.8593 25.8298 29.7034 27.3012 28.232C28.7726 26.7606 29.9286 25.0496 30.7372 23.146C31.0376 22.4392 31.2837 21.7168 31.4778 20.9823C31.4919 20.9415 31.5031 20.8998 31.5111 20.8567L31.5106 20.8562ZM30.1255 16.9309C30.1255 17.8858 30.0298 18.827 29.8437 19.7434H28.4093C27.9378 19.7434 27.6945 19.4326 27.612 19.299C27.5295 19.1654 27.3598 18.8087 27.5707 18.3869L27.8914 17.7461C28.0854 17.3575 28.1881 16.9225 28.1881 16.4884V15.0559C28.1881 13.5053 26.9262 12.2434 25.3756 12.2434C24.8585 12.2434 24.4381 11.823 24.4381 11.3059V10.2077C24.4381 9.95736 24.5356 9.72158 24.7127 9.54486L25.7257 8.5319C26.0328 8.22487 26.2676 7.84471 26.4049 7.43268L26.4115 7.41253C28.8111 10.0286 30.1255 13.3844 30.1255 16.9309ZM16 2.80614C16.3952 2.80614 16.7875 2.82349 17.177 2.85583L18.0166 5.37347C18.0166 5.37347 18.018 5.37722 18.0185 5.3791C18.1169 5.66879 18.0714 5.97816 17.8933 6.22706C17.7152 6.47597 17.4372 6.61894 17.1311 6.61894H16C14.4494 6.61894 13.1875 7.88081 13.1875 9.43142V10.0633C13.1875 10.458 13.0042 10.8166 12.7314 10.9567C11.2684 11.7072 10.4359 13.1402 10.4598 14.6116L8.51165 13.3127C8.11555 13.0488 7.97305 12.5373 8.1868 12.1478C8.62508 11.35 8.66774 10.4153 8.30446 9.58283C7.9407 8.75033 7.22679 8.14659 6.34553 7.92627C6.34366 7.92627 6.34178 7.92534 6.33991 7.92487L5.34615 7.68299C5.56271 7.43456 5.78865 7.19175 6.02443 6.95597C8.70055 4.27989 12.2434 2.80614 15.9995 2.80614H16ZM6.02537 26.9059C3.34925 24.2298 1.87502 20.687 1.87502 16.9309C1.87502 14.1939 2.65831 11.5708 4.11848 9.3133L5.89412 9.74548C6.20584 9.82423 6.45803 10.038 6.58694 10.3328C6.71585 10.6281 6.70038 10.9605 6.54428 11.2445C5.86599 12.4792 6.27381 14.0725 7.47242 14.8717L11.5234 17.5722L12.4548 19.4345C12.7722 20.0687 12.6479 20.8318 12.1468 21.3334L11.5881 21.8921C11.222 22.2582 11.222 22.8517 11.5881 23.2178L12.707 24.3367C13.0178 24.6474 13.1889 25.0604 13.1889 25.4996C13.1889 27.4046 13.6229 29.2927 14.4428 30.9685C11.2731 30.6188 8.32883 29.2074 6.02631 26.9049L6.02537 26.9059ZM14.1311 18.5968L13.7669 17.8684H13.9037C14.8394 17.8684 15.6808 18.3883 16.0989 19.225C16.8372 20.7011 18.3208 21.6184 19.9713 21.6184H20.6875V22.5559C20.6875 23.3139 20.3904 24.0245 19.8508 24.5574C18.1202 26.266 16.8264 27.9737 15.9344 29.7315C15.37 28.4251 15.0625 26.9429 15.0625 25.5006C15.0625 24.5603 14.6964 23.6762 14.0317 23.012L13.5737 22.554C14.5609 21.4815 14.7878 19.9103 14.1311 18.5968ZM25.9751 26.9059C23.6365 29.2445 20.636 30.6648 17.41 30.9858C18.2092 29.2679 19.4482 27.5902 21.1685 25.8915C22.0676 25.0037 22.5626 23.8192 22.5626 22.5559V20.6809C22.5626 20.1629 22.143 19.7434 21.6251 19.7434H19.9713C19.0357 19.7434 18.1942 19.2236 17.7761 18.3869C17.0378 16.9108 15.5542 15.9934 13.9037 15.9934H12.8293L12.5443 15.4234C12.039 14.4133 12.4975 13.1837 13.5873 12.6245C14.4836 12.1647 15.0625 11.1592 15.0625 10.0628V9.43095C15.0625 8.91393 15.483 8.49346 16 8.49346H17.1311C18.0363 8.49346 18.8913 8.05424 19.4182 7.31831C19.9446 6.58331 20.0852 5.63363 19.7946 4.7777L19.2644 3.18817C21.3222 3.67755 23.2455 4.62863 24.9087 5.99082L24.6256 6.83972C24.5796 6.97706 24.5013 7.10409 24.3991 7.20628L23.3862 8.21924C22.8551 8.75033 22.5626 9.45674 22.5626 10.2081V11.3064C22.5626 12.857 23.8245 14.1189 25.3751 14.1189C25.8921 14.1189 26.3126 14.5394 26.3126 15.0564V16.4889C26.3126 16.6337 26.2784 16.7786 26.2137 16.9079L25.8935 17.5487C25.4543 18.4272 25.5007 19.45 26.0168 20.2853C26.5329 21.1206 27.4273 21.6193 28.4093 21.6193H29.3244C28.6301 23.582 27.4976 25.3848 25.9751 26.9068V26.9059Z" fill="white"/>
</svg>
