<svg width="50" height="41" viewBox="0 0 50 41" fill="none" xmlns="http://www.w3.org/2000/svg">
<path d="M36.5792 19.4719C36.2722 17.0496 36.0147 14.8002 35.6731 12.5558C35.6384 12.3234 35.1433 11.9873 34.8611 11.9873C31.3505 11.9477 27.8449 11.9428 24.3344 11.9922C24.0423 11.9922 23.6412 12.3778 23.4927 12.6794C23.2996 13.0897 23.4134 13.6632 23.1956 14.0438C22.9678 14.4443 22.4925 14.7013 22.1211 15.0177C21.8686 14.6025 21.3487 14.1476 21.4032 13.7818C21.9379 10.1829 22.8242 6.68276 24.9335 3.61771C24.9731 3.55839 24.983 3.47929 24.8642 3.0838C23.3491 3.79568 21.8339 4.50757 20.3139 5.21451C19.6306 5.5309 18.9077 6.56906 18.2046 5.4864C17.4718 4.35926 18.6749 4.00826 19.3434 3.59794C25.9981 -0.510219 34.7868 -0.174051 41.085 4.38892C47.5911 9.10514 50.651 17.1484 48.8438 24.7962C46.9722 32.7159 40.7582 38.5494 32.7468 39.8298C27.6172 40.6505 22.8787 39.5975 18.5462 36.7302C18.3482 36.6016 18.056 36.4978 17.9867 36.3149C17.8233 35.865 17.7639 35.3707 17.6599 34.8961C18.1204 34.8565 18.665 34.639 19.0215 34.8071C20.4376 35.4794 21.7844 36.305 23.1857 37.0119C23.7254 37.2838 24.3443 37.4074 25.2306 37.6942C22.9034 34.3226 21.9775 30.7731 21.3636 27.1197C21.3289 26.9269 21.215 26.6847 21.2893 26.5463C21.5121 26.1162 21.8042 25.7207 22.0716 25.3104C22.4331 25.6416 23.0124 25.9085 23.1213 26.309C23.5372 27.8217 23.6412 29.4334 24.171 30.9016C24.8444 32.7703 25.6119 34.6687 26.7012 36.3149C28.4242 38.9152 30.6326 38.8361 32.5339 36.3594C33.6826 34.8664 34.7125 32.538 34.97 30.7484C33.7866 30.7484 32.623 30.7484 31.4594 30.7484C30.7663 30.7484 30.0037 30.7484 30.0087 29.7942C30.0136 28.8253 30.796 28.8846 31.4793 28.8846C32.5834 28.8846 33.6925 28.9291 34.7917 28.8549C35.1086 28.8352 35.6038 28.5089 35.6731 28.237C35.9157 27.3323 36.0444 26.3881 36.1435 25.4488C36.2821 24.1634 36.3514 22.8682 36.4653 21.3703C35.6731 21.3703 34.9848 21.3653 34.2916 21.3703C33.5836 21.3802 32.8409 21.3456 32.8656 20.4013C32.8854 19.4571 33.648 19.4769 34.3412 19.4769C34.97 19.4769 35.5939 19.4769 36.5693 19.4769L36.5792 19.4719ZM38.4558 21.4197C38.1933 23.8718 37.9309 26.3288 37.6586 28.8747C40.0848 28.8747 42.4367 28.8846 44.7886 28.8599C45.0164 28.8599 45.358 28.7116 45.457 28.5336C46.6206 26.3288 47.3089 23.9954 47.3435 21.4197H38.4607H38.4558ZM47.3683 19.4077C47.2792 16.8666 46.6355 14.5431 45.4966 12.3581C45.4075 12.185 45.1451 11.9922 44.9619 11.9922C42.5308 11.9675 40.0996 11.9774 37.6635 11.9774C37.9359 14.5234 38.1933 16.9309 38.4558 19.4077H47.3732H47.3683ZM35.0888 10.0444C34.3857 7.57262 33.5291 5.35293 31.7565 3.62266C30.4246 2.32248 28.9738 2.25822 27.6469 3.45457C25.7158 5.19968 24.8741 7.54296 24.1017 10.0444H35.0888ZM44.1301 30.7484C41.7534 30.7484 39.6738 30.7385 37.5942 30.7681C37.3813 30.7681 37.0644 30.9906 36.9852 31.1834C36.1039 33.2943 35.2621 35.4201 34.4055 37.5508C38.2528 36.4484 41.4761 34.3028 44.1301 30.7484ZM34.3857 3.25683C35.2374 5.35787 36.0741 7.45892 36.9456 9.54513C37.0347 9.7577 37.2922 10.0543 37.4803 10.0593C39.6144 10.0939 41.7484 10.084 44.135 10.084C41.4464 6.52951 38.233 4.33454 34.3857 3.26177V3.25683Z" fill="white"/>
<path d="M11.7479 16.7431C11.7479 14.1724 11.743 11.8192 11.7479 9.46606C11.7479 7.9978 11.9311 7.79511 13.372 7.81983C17.6846 7.89398 16.5458 7.13266 18.2441 11.0332C18.9522 12.6547 19.6355 14.2861 20.2742 15.9373C20.5119 16.5552 20.8535 16.7678 21.5022 16.7579C22.7202 16.7431 23.9481 16.7332 25.1612 16.8568C27.122 17.0595 28.7213 18.0136 30.0532 19.4571C30.687 20.1443 30.6474 20.7375 30.0235 21.4099C28.3747 23.1797 26.3199 24.3068 23.9432 24.0201C21.2447 23.6988 19.9474 24.7073 19.279 27.2186C18.8383 28.8748 17.9669 30.4122 17.343 32.0238C17.0558 32.7654 16.5904 33.062 15.818 33.0323C14.9119 33.0027 14.0057 33.0076 13.0996 33.0323C12.1638 33.0521 11.7331 32.6467 11.743 31.6877C11.7677 29.5224 11.7083 27.3571 11.7677 25.1967C11.7925 24.3019 11.4657 24.1437 10.6239 24.0498C8.90086 23.852 7.69272 24.4008 6.77176 25.8591C6.41526 26.4227 5.82604 27.1297 5.26159 27.2186C3.99403 27.4114 2.6522 27.3867 1.38465 27.184C0.602325 27.0604 0.676595 26.2892 1.043 25.6515C1.88473 24.1832 2.68191 22.6903 3.56821 21.2517C3.95442 20.6238 3.92966 20.1591 3.55335 19.5461C2.69181 18.1372 1.88969 16.6887 1.09251 15.2452C0.47854 14.1328 0.830088 13.5643 2.1125 13.5248C2.19172 13.5248 2.27094 13.5347 2.35017 13.5248C4.68227 13.1243 6.44992 13.8659 7.69272 15.957C7.94029 16.3773 8.68795 16.6195 9.24251 16.7134C10.005 16.842 10.8022 16.7431 11.7529 16.7431H11.7479ZM3.49394 25.1868C3.58306 25.3252 3.67219 25.4587 3.75636 25.5971C4.24655 25.3252 4.80606 25.1324 5.21207 24.7666C5.73692 24.2969 6.17264 23.7185 6.58361 23.1451C7.08865 22.4381 7.71252 22.1811 8.59387 22.191C11.7083 22.2355 14.8227 22.2107 17.9372 22.2107C19.987 22.2107 22.0369 22.2305 24.0868 22.2008C25.7108 22.1761 27.122 21.6373 28.2955 20.4113C26.9635 19.1012 25.4682 18.6266 23.7847 18.6266C19.5266 18.6266 15.2584 18.4783 11.0102 18.681C8.47009 18.8046 6.50439 18.3201 5.1477 16.0263C4.91499 15.6308 4.20199 15.5121 3.7118 15.2699C3.62763 15.3836 3.54345 15.5022 3.45928 15.6159C4.00393 16.5602 4.45451 17.5736 5.10809 18.4387C6.11322 19.7834 6.1875 20.9897 5.1378 22.3541C4.47431 23.2143 4.02869 24.2376 3.48899 25.1868H3.49394ZM13.7384 24.1536V31.2625C14.4959 31.0796 15.5308 31.1142 15.7189 30.7336C16.7587 28.6424 17.5856 26.4425 18.5412 24.1536H13.7384ZM18.5412 16.6689C17.7242 14.7162 16.9617 12.8821 16.1943 11.048C15.5506 9.51055 15.5011 9.48583 13.7483 9.9011V16.6689H18.5412Z" fill="white"/>
<path d="M5.47943 33.0224C4.57828 33.0224 3.65732 33.1213 2.77597 32.9829C2.36006 32.9186 2.01346 32.3995 1.6322 32.0881C2.00356 31.7618 2.36006 31.1785 2.74627 31.1587C4.58818 31.0598 6.44 31.0598 8.27697 31.1587C8.65823 31.1785 9.00483 31.7865 9.36628 32.1227C9.00978 32.4193 8.68299 32.9236 8.29678 32.9779C7.37087 33.1065 6.41525 33.0175 5.47448 33.0175L5.47943 33.0224Z" fill="white"/>
<path d="M7.22727 9.71322C6.59844 9.71322 5.93495 9.83682 5.35564 9.66873C4.97933 9.55997 4.56342 9.07055 4.46934 8.68001C4.41983 8.47732 5.01399 7.88902 5.34574 7.86925C6.67271 7.77532 8.01949 7.77038 9.34646 7.86925C9.68316 7.89397 9.99014 8.41305 10.307 8.69978C9.98519 9.03595 9.71782 9.57975 9.33656 9.66873C8.66812 9.82693 7.93036 9.71322 7.22727 9.71322Z" fill="white"/>
<path d="M3.21668 8.68492C2.57795 9.16445 2.22145 9.6341 1.85504 9.64398C1.55301 9.65387 0.94894 9.07052 0.988551 8.83323C1.04797 8.4674 1.49854 7.99281 1.86495 7.89888C2.14718 7.82967 2.55814 8.27954 3.21668 8.68492Z" fill="white"/>
<path d="M28.2559 29.8239C27.6271 30.2441 27.2161 30.7236 26.9438 30.6544C26.5724 30.5605 26.305 30.0463 25.998 29.7151C26.3248 29.4432 26.6368 28.9736 26.9784 28.9538C27.3003 28.934 27.6518 29.3888 28.2559 29.8288V29.8239Z" fill="white"/>
</svg>

