<svg width="30" height="30" viewBox="0 0 30 30" fill="none" xmlns="http://www.w3.org/2000/svg">
<path d="M3.89844 14.8593C3.89844 20.9804 8.87828 25.9608 15 25.9608C21.1217 25.9608 26.1016 20.9804 26.1016 14.8593C26.1016 8.7381 21.1217 3.75769 15 3.75769C8.87828 3.75769 3.89844 8.7381 3.89844 14.8593ZM9.47754 9.4563C10.1669 9.4563 10.7384 10.0165 10.752 10.7058C10.7582 11.0388 10.629 11.3572 10.3878 11.6035C10.1368 11.859 9.79019 12.0057 9.43562 12.0057H6.04115C6.33455 11.087 6.76559 10.2294 7.3099 9.45687H9.47811L9.47754 9.4563ZM20.3259 22.6032C19.734 22.4933 19.2849 21.9733 19.2849 21.3503C19.2849 19.945 18.1413 18.8014 16.736 18.8014H13.7675C13.4135 18.8014 13.0663 18.6547 12.8159 18.3993C12.5746 18.1535 12.4455 17.8346 12.4517 17.5015C12.4648 16.8128 13.0368 16.252 13.7262 16.252H19.2486C20.6539 16.252 21.7974 15.1085 21.7974 13.7032C21.7974 12.298 20.6539 11.1544 19.2486 11.1544H18.399C17.9306 11.1544 17.5494 10.7732 17.5494 10.3048C17.5494 9.83636 17.9306 9.45517 18.399 9.45517H22.6912C23.7691 10.985 24.4029 12.8491 24.4029 14.8581C24.4029 18.0668 22.787 20.9045 20.3265 22.602L20.3259 22.6032ZM21.1546 7.75709H18.3984C16.9932 7.75709 15.8496 8.90066 15.8496 10.3059C15.8496 11.7112 16.9932 12.8547 18.3984 12.8547H19.248C19.7165 12.8547 20.0977 13.2359 20.0977 13.7044C20.0977 14.1728 19.7165 14.554 19.248 14.554H13.7256C12.9417 14.554 12.2014 14.8564 11.6418 15.4058C11.0833 15.9547 10.7672 16.6876 10.752 17.4698C10.7367 18.2628 11.0386 19.0155 11.6021 19.5899C12.1702 20.1687 12.9592 20.5012 13.7669 20.5012H16.7355C17.2039 20.5012 17.5851 20.8824 17.5851 21.3508C17.5851 22.2254 17.9651 23.0132 18.5678 23.5576C17.4667 24.0107 16.262 24.2616 14.9994 24.2616C9.81512 24.2616 5.59709 20.0436 5.59709 14.8593C5.59709 14.4684 5.62145 14.0827 5.66789 13.7044H9.43506C10.2428 13.7044 11.0318 13.3724 11.5999 12.793C12.1634 12.2187 12.4653 11.4659 12.45 10.6729C12.4353 9.89074 12.1193 9.15781 11.5608 8.60896C11.0012 8.05955 10.2614 7.75709 9.47697 7.75709H8.84486C10.4954 6.32521 12.6477 5.45691 14.9994 5.45691C17.3512 5.45691 19.5035 6.32464 21.154 7.75709H21.1546Z" fill="white"/>
<path d="M25.2531 4.60617C22.5145 1.86759 18.8731 0.359253 15 0.359253V2.05847C18.4194 2.05847 21.6337 3.39009 24.0517 5.80751C26.4697 8.2255 27.8008 11.4399 27.8008 14.8593C27.8008 18.2786 26.4692 21.493 24.0517 23.911C21.6337 26.329 18.4194 27.66 15 27.66C11.5806 27.66 8.36625 26.3284 5.94826 23.911C3.53027 21.493 2.19922 18.2786 2.19922 14.8593H0.5C0.5 18.7323 2.00834 22.3738 4.74691 25.1123C7.48549 27.8509 11.1269 29.3593 15 29.3593C18.8731 29.3593 22.5145 27.8509 25.2531 25.1123C27.9917 22.3738 29.5 18.7323 29.5 14.8593C29.5 10.9862 27.9917 7.34474 25.2531 4.60617Z" fill="white"/>
<path d="M12.0675 0.633147L10.4262 1.07294L10.866 2.71426L12.5073 2.27447L12.0675 0.633147Z" fill="white"/>
<path d="M8.48586 1.87744L7.0143 2.72705L7.86391 4.19862L9.33547 3.34901L8.48586 1.87744Z" fill="white"/>
<path d="M5.34801 4.00556L4.14648 5.20709L5.34801 6.40862L6.54954 5.20709L5.34801 4.00556Z" fill="white"/>
<path d="M2.86764 6.87322L2.01803 8.34479L3.48959 9.1944L4.3392 7.72283L2.86764 6.87322Z" fill="white"/>
<path d="M1.21385 10.2862L0.774059 11.9276L2.41538 12.3673L2.85517 10.726L1.21385 10.2862Z" fill="white"/>
</svg>
