<svg width="52" height="44" viewBox="0 0 52 44" fill="none" xmlns="http://www.w3.org/2000/svg">
    <path d="M0.964478 38.1454C0.964478 36.865 0.964478 35.5846 0.964478 34.3042C1.39525 34.1658 1.96465 33.795 2.22708 33.9433C2.53406 34.1213 2.64299 34.7442 2.70736 35.1941C2.78658 35.7675 2.77174 36.3608 2.71728 36.9392C2.49941 39.3714 4.03433 41.3934 7.06954 41.1857C7.63895 41.1462 7.87166 41.0572 7.87166 40.3997C7.84691 30.9129 7.85681 21.4261 7.85681 11.9392C7.85681 11.3114 7.85681 10.6835 7.85681 10.026C7.53497 10.0112 7.33692 9.99143 7.13391 9.99143C4.01948 9.942 2.72222 11.2125 2.72222 14.3072C2.72222 19.8639 2.73212 25.4254 2.69747 30.9821C2.69747 31.4072 2.36572 31.8275 2.18747 32.2477C1.78146 32.0598 1.37049 31.8719 0.964478 31.6841C0.964478 25.4551 0.964478 19.2212 0.964478 12.9922C1.01894 12.8933 1.11301 12.7994 1.12787 12.6956C1.45961 10.2485 3.83133 8.20184 6.7477 8.43419C7.52507 8.49846 8.22816 8.38475 8.81738 7.75691C9.04514 7.50973 9.49077 7.36142 9.84232 7.34659C10.8276 7.31693 11.8229 7.3367 12.8082 7.43063C13.1845 7.46524 13.645 7.65804 13.8777 7.93488C14.5957 8.80002 15.5018 8.43419 16.3039 8.29577C16.4821 8.26611 16.5168 7.35153 16.6059 6.84728C16.6307 6.70392 16.6059 6.55561 16.6109 6.41225C16.6406 3.26315 19.0965 0.984138 21.5326 0.914927C24.6767 0.830886 27.8406 0.682577 30.9699 0.914927C34.2527 1.15717 35.956 3.28787 36.0352 6.57044C36.05 7.16862 36.1293 7.7668 36.1837 8.37981C37.3275 8.26116 38.4812 8.62699 39.3477 7.59377C39.5259 7.3812 39.9963 7.35648 40.338 7.3367C41.1252 7.29715 41.9174 7.27244 42.6998 7.3367C43.1157 7.37131 43.6306 7.48501 43.9029 7.75691C44.5169 8.37487 45.2299 8.3452 45.9875 8.35015C47.8245 8.36498 49.4287 8.9335 50.5873 10.4265C52.1074 12.3891 51.7064 14.6632 51.538 16.8779C51.5232 17.0608 50.9389 17.3723 50.6814 17.3228C50.419 17.2685 50.0774 16.8581 50.0476 16.5714C49.9585 15.7656 50.0576 14.94 49.9932 14.1293C49.9387 13.4174 49.909 12.6462 49.6169 12.0134C48.8246 10.2831 46.8639 9.56628 44.7299 10.1447C44.7299 10.382 44.7299 10.639 44.7299 10.8961C44.7299 20.6499 44.7299 30.4037 44.7299 40.1525C44.7299 40.3256 44.6803 40.5233 44.7496 40.6716C44.8338 40.8545 45.0022 41.1165 45.1507 41.1264C46.3737 41.2006 47.5818 41.2302 48.6414 40.3997C49.8149 39.4802 50.0031 38.2295 50.0031 36.8848C50.0031 31.2935 50.0031 25.7072 50.0031 20.116C50.0031 19.5376 50.0031 18.9394 50.8003 18.9394C51.5529 18.9394 51.6766 19.498 51.6766 20.0913C51.6766 25.8259 51.6865 31.5605 51.6717 37.2951C51.6717 38.793 51.2459 40.1278 50.1269 41.2302C48.8543 42.481 47.2897 42.7183 45.6261 42.7628C45.2052 42.7726 44.6556 42.7479 44.3932 42.9852C42.9275 44.3101 41.249 43.8899 39.5952 43.6674C39.3328 43.6328 39.11 43.356 38.8525 43.2374C38.4515 43.0544 38.0356 42.7776 37.6246 42.7776C30.0985 42.7479 22.5724 42.7529 15.0413 42.7776C14.6798 42.7776 14.254 42.9556 13.9668 43.183C12.9518 43.9789 9.85717 44.2755 8.91146 43.4301C8.20836 42.8073 7.51022 42.7578 6.68829 42.7479C4.53443 42.7232 2.74697 41.9866 1.69727 39.9844C1.39524 39.406 1.22195 38.7584 0.994185 38.1405L0.964478 38.1454ZM38.0801 10.0508H14.5808C14.5808 11.1235 14.5709 12.137 14.5808 13.1504C14.5907 13.8079 14.3184 14.2776 13.645 14.2479C13.0013 14.2232 12.8132 13.709 12.828 13.1208C12.8478 12.4534 12.8577 11.781 12.8627 11.1136C12.8627 8.91372 12.8627 8.94338 10.6247 8.91372C9.79777 8.90383 9.55019 9.22517 9.56009 9.98649C9.58485 12.1073 9.57 14.2281 9.57 16.3489C9.57 24.1797 9.57 32.0104 9.57 39.8411C9.57 42.6936 9.29273 42.1497 12.0011 42.2338C12.6547 42.2536 12.8577 41.9817 12.8577 41.3489C12.8379 34.4772 12.8379 27.6105 12.833 20.7389C12.833 19.3695 12.8627 18.0051 12.8627 16.6357C12.8627 16.0622 13.135 15.7508 13.7044 15.7557C14.259 15.7656 14.556 16.082 14.5709 16.6357C14.5808 16.868 14.5709 17.1004 14.5709 17.3327C14.5709 24.9014 14.5709 32.4701 14.5709 40.0388V41.077H38.0702V10.0409L38.0801 10.0508ZM43.0464 25.5787C43.0464 25.5787 43.0266 25.5787 43.0216 25.5787C43.0216 20.6944 43.0018 15.8051 43.0315 10.9208C43.0464 8.92855 43.0959 8.92855 41.0955 8.92855C39.8527 8.92855 39.8181 8.96316 39.8181 10.204C39.8181 20.1852 39.8181 30.1614 39.8081 40.1426C39.8081 42.6787 39.6992 42.1844 41.9175 42.219C43.0414 42.2338 43.0464 42.2239 43.0464 41.1165C43.0464 35.9356 43.0464 30.7596 43.0464 25.5787ZM34.2824 8.1969C34.2824 7.4949 34.3022 6.71875 34.2824 5.93766C34.2329 4.13323 32.7178 2.51172 30.9056 2.48206C27.8159 2.42273 24.7262 2.46228 21.6365 2.48206C21.3296 2.48206 21.0028 2.58093 20.7205 2.70946C18.6954 3.64381 17.7546 5.98709 18.4577 8.3106H20.6066C20.6066 7.6877 20.6017 7.11424 20.6066 6.53584C20.6215 5.34442 21.1662 4.80557 22.3793 4.80557C24.9144 4.80062 27.4544 4.80557 29.9895 4.80557C31.574 4.80557 31.985 5.17634 32.1731 6.74841C32.2375 7.3021 32.1335 8.1178 32.4405 8.34026C32.8118 8.60227 33.5446 8.35509 34.124 8.32543C34.1487 8.32543 34.1685 8.29577 34.2873 8.20184L34.2824 8.1969ZM26.3503 8.43419C27.4544 8.43419 28.5635 8.41442 29.6677 8.44408C30.1975 8.45891 30.4302 8.28094 30.3609 7.73714C30.3262 7.48007 30.4302 7.17851 30.3262 6.96099C30.2124 6.70886 29.945 6.34798 29.737 6.34303C27.4693 6.29854 25.1966 6.29854 22.9239 6.34303C22.711 6.34303 22.4238 6.68415 22.3198 6.92638C22.2159 7.17356 22.3198 7.49984 22.2901 7.78657C22.2456 8.27599 22.4337 8.45396 22.9388 8.43913C24.0726 8.40947 25.2115 8.42925 26.3453 8.42925L26.3503 8.43419Z"
          fill="white"/>
    <path d="M36.3273 33.884C36.3917 34.8233 35.9114 35.4561 35.1043 35.8071C32.896 36.7661 30.6729 37.6956 28.4447 38.6151C27.2712 39.0995 26.2067 38.7584 25.6274 37.6362C25.0728 36.5536 24.5876 35.4314 24.1667 34.2894C23.8548 33.449 24.3598 32.3713 25.2758 31.9659C27.5832 30.9426 29.9103 29.9538 32.2523 29.0145C33.0594 28.6932 34.0398 28.7772 34.4854 29.5188C35.2974 30.8684 35.8718 32.3564 36.5452 33.7901C36.4759 33.8197 36.4016 33.8544 36.3323 33.884H36.3273ZM34.7627 33.8791C34.2527 32.7371 33.7972 31.6742 33.2872 30.641C33.2327 30.5322 32.8069 30.5026 32.6138 30.5817C30.5194 31.4369 28.4447 32.3317 26.3552 33.1968C25.8403 33.4094 25.7116 33.7258 25.9344 34.2251C26.3107 35.0705 26.6375 35.9406 27.0633 36.7563C27.1722 36.9639 27.6624 37.1765 27.8605 37.1023C29.9896 36.2619 32.0989 35.372 34.2032 34.4674C34.4211 34.3734 34.5647 34.0966 34.7627 33.8791Z"
          fill="white"/>
    <path d="M20.5076 31.1551C19.25 31.1551 18.5023 30.6657 18.0765 29.7462C17.3338 28.1395 16.6356 26.513 15.9276 24.8965C15.5463 24.0264 15.6354 23.1959 16.1801 22.4197C16.4326 22.0638 16.7099 21.7227 16.9327 21.3519C17.7893 19.9331 19.0519 19.5574 20.6066 19.8639C20.978 19.938 21.3593 19.9627 21.7306 20.0171C22.6516 20.1555 23.3745 20.5708 23.7656 21.4557C24.4638 23.0476 25.1768 24.6295 25.8452 26.2362C26.4691 27.7341 26.0433 28.8514 24.5777 29.5435C23.4785 30.0626 22.3446 30.5223 21.2206 30.9821C20.9335 31.1007 20.6067 31.1353 20.5027 31.1601L20.5076 31.1551ZM19.3787 21.3568C19.3193 21.3865 18.9578 21.4755 18.7548 21.7078C18.3142 22.2022 17.9131 22.746 17.5715 23.3145C17.4229 23.5568 17.3437 23.9671 17.4477 24.2143C18.1409 25.8654 18.8638 27.5117 19.656 29.1183C19.7798 29.3655 20.3739 29.6127 20.6265 29.5237C21.7405 29.1233 22.8249 28.619 23.8894 28.0999C24.3301 27.8874 24.6024 27.482 24.3648 26.9431C23.6666 25.3513 22.9833 23.7496 22.2357 22.1824C22.097 21.8957 21.7108 21.6287 21.389 21.5496C20.8344 21.4112 20.2403 21.431 19.3738 21.3568H19.3787Z"
          fill="white"/>
    <path d="M31.3958 22.3851C30.049 22.2813 28.7369 21.96 27.6723 20.9861C26.2562 19.6908 26.2166 17.8024 27.5634 16.4379C29.6133 14.3616 33.8962 14.5445 35.7382 16.7939C36.6146 17.8617 36.6492 19.2607 35.8075 20.4077C34.7281 21.8759 33.1634 22.306 31.4007 22.3851H31.3958ZM31.5443 16.3737C31.5097 16.4577 31.475 16.5417 31.4453 16.6258C31.1532 16.6258 30.861 16.6011 30.5739 16.6258C29.5885 16.7247 28.5388 17.5107 28.3309 18.3116C28.1279 19.0729 28.5586 19.5969 29.0884 20.032C30.3461 21.0751 32.797 21.0157 34.0349 19.938C34.9113 19.1718 34.9757 18.0891 34.0151 17.4316C33.2872 16.9372 32.3762 16.7148 31.5493 16.3687L31.5443 16.3737Z"
          fill="white"/>
    <path d="M18.8786 23.3887C19.2599 23.1415 19.6263 22.7312 20.0323 22.6817C20.5819 22.6125 21.1166 23.0525 21.0028 23.6111C20.9235 23.9918 20.3838 24.4812 20.0026 24.5307C19.6609 24.5752 19.2549 24.0808 18.8737 23.8237C18.8737 23.6804 18.8737 23.537 18.8737 23.3936L18.8786 23.3887Z"
          fill="white"/>
</svg>
