<svg width="24" height="32" viewBox="0 0 24 32" fill="none" xmlns="http://www.w3.org/2000/svg">
<path d="M9.3986 14.4526H11.1329C11.1329 14.9534 11.5218 15.3608 12 15.3608C12.4782 15.3608 12.8671 14.9534 12.8671 14.4526H14.6014C14.6014 15.9547 13.4342 17.1772 12 17.1772C10.5658 17.1772 9.3986 15.9547 9.3986 14.4526Z" fill="white"/>
<path d="M0.727274 14.4526V12.6362C0.727274 11.134 1.89443 9.91158 3.32867 9.91158H5.93007V5.37058C5.93007 2.86668 7.87505 0.82959 10.2657 0.82959H13.7343C16.125 0.82959 18.0699 2.86668 18.0699 5.37058V9.91158H20.6713C22.1056 9.91158 23.2727 11.134 23.2727 12.6362V14.4526C23.2727 15.6364 22.5478 16.6459 21.5385 17.021V21.8417C22.5907 22.6709 23.2727 23.9896 23.2727 25.4722V31.8296H0.727274V25.4722C0.727274 23.9896 1.40927 22.6709 2.46154 21.8417V17.021C1.4522 16.6459 0.727274 15.6364 0.727274 14.4526ZM3.32867 11.728C2.85045 11.728 2.46154 12.1353 2.46154 12.6362V14.4526C2.46154 14.9534 2.85045 15.3608 3.32867 15.3608H5.9925C5.95132 15.0629 5.93007 14.7595 5.93007 14.4526V11.728H3.32867ZM2.46154 26.3804H4.1958V22.9038C3.18646 23.2789 2.46154 24.2884 2.46154 25.4722V26.3804ZM5.93007 26.3804V30.0132H18.0699V22.7476H16.2485C15.8457 24.8178 14.0937 26.3804 12 26.3804C9.90631 26.3804 8.15427 24.8178 7.75148 22.7476H5.93007V26.3804ZM9.54775 22.7476C9.90588 23.8047 10.8697 24.564 12 24.564C13.1303 24.564 14.0941 23.8047 14.4523 22.7476H12.8671V18.9495L13.4451 18.7356C15.1741 18.0958 16.3357 16.3743 16.3357 14.453V10.818C15.6107 11.3892 14.7094 11.7284 13.7343 11.7284H10.2657C9.29064 11.7284 8.38926 11.3892 7.66434 10.818V14.453C7.66434 16.3748 8.82586 18.0958 10.5549 18.7356L11.1329 18.9495V22.7476H9.54775ZM16.187 8.09518H7.81262C8.17031 9.15232 9.13499 9.91158 10.2653 9.91158H13.7338C14.8646 9.91158 15.8288 9.15232 16.1865 8.09518H16.187ZM16.3357 5.37058C16.3357 3.86842 15.1685 2.64599 13.7343 2.64599H10.2657C8.8315 2.64599 7.66434 3.86842 7.66434 5.37058V6.27878H16.3357V5.37058ZM21.5385 12.6362C21.5385 12.1353 21.1496 11.728 20.6713 11.728H18.0699V14.4526C18.0699 14.7595 18.0487 15.0629 18.0075 15.3608H20.6713C21.1496 15.3608 21.5385 14.9534 21.5385 14.4526V12.6362ZM19.8042 17.1772H17.4816C16.8889 18.4827 15.8809 19.5621 14.6014 20.1983V20.9312H18.9371C19.2341 20.9312 19.5241 20.9625 19.8042 21.0225V17.1772ZM19.8042 22.9038V26.3804H21.5385V25.4722C21.5385 24.2884 20.8135 23.2789 19.8042 22.9038ZM21.5385 28.1968H19.8042V30.0132H21.5385V28.1968ZM4.1958 30.0132V28.1968H2.46154V30.0132H4.1958ZM5.06294 20.9312H9.3986V20.1983C8.11915 19.5621 7.11067 18.4827 6.51842 17.1772H4.1958V21.0225C4.47589 20.9625 4.76595 20.9312 5.06294 20.9312Z" fill="white"/>
</svg>
